<?xml version="1.0" encoding="UTF-8" standalone="no"?>
<!-- Created with Inkscape (http://www.inkscape.org/) -->
<svg id="svg2" xmlns:rdf="http://www.w3.org/1999/02/22-rdf-syntax-ns#" xmlns="http://www.w3.org/2000/svg" xml:space="preserve" height="700" width="700" version="1.1" xmlns:cc="http://creativecommons.org/ns#" xmlns:dc="http://purl.org/dc/elements/1.1/"><metadata id="metadata8"><rdf:RDF><cc:Work rdf:about=""><dc:format>image/svg+xml</dc:format><dc:type rdf:resource="http://purl.org/dc/dcmitype/StillImage"/><dc:title/></cc:Work></rdf:RDF></metadata><defs id="defs6"><clipPath id="clipPath16" clipPathUnits="userSpaceOnUse"><path id="path18" d="M0,560,560,560,560,0,0,0,0,560z"/></clipPath></defs><g id="g10" transform="matrix(1.25,0,0,-1.25,0,700)"><g id="g12"><g id="g14" clip-path="url(#clipPath16)"><text id="text20" transform="matrix(1,0,0,-1,-11,10.3496)"><tspan id="tspan22" style="writing-mode:lr;" font-family="MV Boli" fill-rule="nonzero" font-size="250" font-style="italic" font-stretch="normal" font-variant="normal" y="0" x="0" font-weight="normal" fill="#ff1d25">M</tspan></text>
<text id="text24" font-size="270" font-weight="normal" fill-rule="nonzero" transform="matrix(1,0,0,-1,194.2529,18.9414)" font-stretch="normal" font-variant="normal" font-family="Calibri" fill="#ff1d25"><tspan id="tspan26" style="writing-mode:lr;" y="0" x="0">s</tspan><tspan id="tspan28" style="writing-mode:lr;" y="-1.89" x="73.98 163.62">ac</tspan></text>
<g id="g30" transform="translate(414,236)"><path id="path32" fill-rule="nonzero" fill="#ff1d25" d="m0,0c0-51.362-58.427-93-130.5-93s-130.5,41.638-130.5,93,58.427,93,130.5,93,130.5-41.638,130.5-93"/></g><g id="g34" transform="translate(414,236)"><path id="path36" stroke-linejoin="miter" d="m0,0c0-51.362-58.427-93-130.5-93s-130.5,41.638-130.5,93,58.427,93,130.5,93,130.5-41.638,130.5-93z" stroke="#ff1d25" stroke-linecap="butt" stroke-miterlimit="10" stroke-dasharray="none" stroke-width="1" fill="none"/></g><g id="g38" transform="translate(303.2129,221)"><path id="path40" fill-rule="nonzero" fill="#FFF" d="M0,0-21.213-21.213-42.426,0-21.213,21.213,0,0z"/></g><g id="g42" transform="translate(99,236)"><path id="path44" stroke-linejoin="miter" d="M0,0c-3.064,19.515,33.139,41.38,80.943,48.888" stroke="#ff1d25" stroke-linecap="butt" stroke-miterlimit="10" stroke-dasharray="none" stroke-width="16" fill="none"/></g><g id="g46" transform="translate(99,239.8867)"><path id="path48" stroke-linejoin="miter" d="M0,0c-3.064-19.515,33.139-41.38,80.943-48.888" stroke="#ff1d25" stroke-linecap="butt" stroke-miterlimit="10" stroke-dasharray="none" stroke-width="16" fill="none"/></g><g id="g50" transform="translate(467.7617,236)"><path id="path52" stroke-linejoin="miter" d="M0,0c3.064,19.515-33.139,41.38-80.943,48.888" stroke="#ff1d25" stroke-linecap="butt" stroke-miterlimit="10" stroke-dasharray="none" stroke-width="16" fill="none"/></g><g id="g54" transform="translate(467.7617,239.8867)"><path id="path56" stroke-linejoin="miter" d="M0,0c3.064-19.515-33.139-41.38-80.943-48.888" stroke="#ff1d25" stroke-linecap="butt" stroke-miterlimit="10" stroke-dasharray="none" stroke-width="16" fill="none"/></g><g id="g58" transform="translate(237.1216,313.9902)"><path id="path60" stroke-linejoin="miter" d="M0,0c13.26,30.328,32.922,50.962,43.96,46.136" stroke="#ff1d25" stroke-linecap="butt" stroke-miterlimit="10" stroke-dasharray="none" stroke-width="16" fill="none"/></g><g id="g62" transform="translate(318.082,313.9902)"><path id="path64" stroke-linejoin="miter" d="M0,0c-13.261,30.328-32.923,50.962-43.961,46.136" stroke="#ff1d25" stroke-linecap="butt" stroke-miterlimit="10" stroke-dasharray="none" stroke-width="16" fill="none"/></g><g id="g66" transform="translate(259.7773,347)"><path id="path68" stroke-linejoin="miter" d="M0,0c0,54.721-3.781,99-8.453,99" stroke="#ff1d25" stroke-linecap="butt" stroke-miterlimit="10" stroke-dasharray="none" stroke-width="16" fill="none"/></g><g id="g70" transform="translate(252.8804,444.3184)"><path id="path72" stroke-linejoin="round" d="M0,0c-47.229,67.746-105.01,108.93-129.19,92.07" stroke="#ff1d25" stroke-linecap="round" stroke-miterlimit="10" stroke-dasharray="none" stroke-width="16" fill="none"/></g><g id="g74" transform="translate(244.6025,335.8892)"><path id="path76" stroke-linejoin="round" d="M0,0c-2.765-6.601-42.438,3.739-88.7,23.119" stroke="#ff1d25" stroke-linecap="round" stroke-miterlimit="10" stroke-dasharray="none" stroke-width="16" fill="none"/></g><g id="g78" transform="translate(161.6782,357.4844)"><path id="path80" stroke-linejoin="miter" d="M0,0c-25.067,0.716-43.651,60.819-41.552,134.38" stroke="#ff1d25" stroke-linecap="butt" stroke-miterlimit="10" stroke-dasharray="none" stroke-width="16" fill="none"/></g><g id="g82" transform="translate(120.1265,491.8657)"><path id="path84" stroke-linejoin="round" d="M0,0c0,24.609,1.594,44.523,3.564,44.523" stroke="#ff1d25" stroke-linecap="butt" stroke-miterlimit="10" stroke-dasharray="none" stroke-width="16" fill="none"/></g><g id="g86" transform="translate(248.7573,342.333)"><path id="path88" stroke-linejoin="round" d="M0,0-50.424,57.333" stroke="#ff1d25" stroke-linecap="round" stroke-miterlimit="10" stroke-dasharray="none" stroke-width="16" fill="none"/></g><g id="g90" transform="translate(296.9648,350)"><path id="path92" stroke-linejoin="miter" d="M0,0c0,54.721,3.781,99,8.453,99" stroke="#ff1d25" stroke-linecap="butt" stroke-miterlimit="10" stroke-dasharray="none" stroke-width="16" fill="none"/></g><g id="g94" transform="translate(303.8613,447.3184)"><path id="path96" stroke-linejoin="round" d="M0,0c47.229,67.746,105.01,108.93,129.19,92.07" stroke="#ff1d25" stroke-linecap="round" stroke-miterlimit="10" stroke-dasharray="none" stroke-width="16" fill="none"/></g><g id="g98" transform="translate(312.1396,338.8892)"><path id="path100" stroke-linejoin="round" d="M0,0c2.765-6.601,42.438,3.739,88.7,23.119" stroke="#ff1d25" stroke-linecap="round" stroke-miterlimit="10" stroke-dasharray="none" stroke-width="16" fill="none"/></g><g id="g102" transform="translate(395.0645,360.4844)"><path id="path104" stroke-linejoin="miter" d="M0,0c25.066,0.716,43.65,60.819,41.551,134.38" stroke="#ff1d25" stroke-linecap="butt" stroke-miterlimit="10" stroke-dasharray="none" stroke-width="16" fill="none"/></g><g id="g106" transform="translate(436.6152,494.8657)"><path id="path108" stroke-linejoin="round" d="M0,0c0,24.609-1.594,44.523-3.563,44.523" stroke="#ff1d25" stroke-linecap="butt" stroke-miterlimit="10" stroke-dasharray="none" stroke-width="16" fill="none"/></g><g id="g110" transform="translate(307.9844,345.333)"><path id="path112" stroke-linejoin="round" d="M0,0,50.424,57.333" stroke="#ff1d25" stroke-linecap="round" stroke-miterlimit="10" stroke-dasharray="none" stroke-width="16" fill="none"/></g><g id="g114" transform="translate(242.3145,253.0439)"><path id="path116" fill-rule="nonzero" fill="#FFF" d="m0,0c0-4.505-3.652-8.157-8.157-8.157s-8.157,3.652-8.157,8.157,3.652,8.157,8.157,8.157,8.157-3.652,8.157-8.157"/></g><g id="g118" transform="translate(335.3145,253.0439)"><path id="path120" fill-rule="nonzero" fill="#FFF" d="m0,0c0-4.505-3.652-8.157-8.157-8.157s-8.157,3.652-8.157,8.157,3.652,8.157,8.157,8.157,8.157-3.652,8.157-8.157"/></g><g id="g122" transform="translate(203.6665,230.333)"><path id="path124" stroke-linejoin="miter" d="M0,0-11.333-12" stroke="#FFF" stroke-linecap="round" stroke-miterlimit="10" stroke-dasharray="none" stroke-width="5" fill="none"/></g><g id="g126" transform="translate(216.6665,230.333)"><path id="path128" stroke-linejoin="miter" d="M0,0-11.333-12" stroke="#FFF" stroke-linecap="round" stroke-miterlimit="10" stroke-dasharray="none" stroke-width="5" fill="none"/></g><g id="g130" transform="translate(228.6665,230.333)"><path id="path132" stroke-linejoin="miter" d="M0,0-11.333-12" stroke="#FFF" stroke-linecap="round" stroke-miterlimit="10" stroke-dasharray="none" stroke-width="5" fill="none"/></g><g id="g134" transform="translate(348.666,230.333)"><path id="path136" stroke-linejoin="miter" d="M0,0-11.332-12" stroke="#FFF" stroke-linecap="round" stroke-miterlimit="10" stroke-dasharray="none" stroke-width="5" fill="none"/></g><g id="g138" transform="translate(361.666,230.333)"><path id="path140" stroke-linejoin="miter" d="M0,0-11.332-12" stroke="#FFF" stroke-linecap="round" stroke-miterlimit="10" stroke-dasharray="none" stroke-width="5" fill="none"/></g><g id="g142" transform="translate(373.666,230.333)"><path id="path144" stroke-linejoin="miter" d="M0,0-11.332-12" stroke="#FFF" stroke-linecap="round" stroke-miterlimit="10" stroke-dasharray="none" stroke-width="5" fill="none"/></g></g></g></g></svg>
